<?xml version="1.0" encoding="UTF-8"?>
<svg id="Layer_2" data-name="Layer 2" xmlns="http://www.w3.org/2000/svg" viewBox="0 0 65.48 48.76">
  <defs>
    <style>
      .cls-1 {
        fill: #fff;
      }
    </style>
  </defs>
  <g id="Layer_1-2" data-name="Layer 1">
    <g>
      <g>
        <g>
          <path class="cls-1" d="m65.48,0c-.38,3.83-1.45,7.46-3.1,10.76-5.1,10.24-15.7,17.27-27.94,17.27v-9.35c10.99,0,20.09-8.12,21.58-18.67h9.46Z"/>
          <rect class="cls-1" x="15.77" y="0" width="9.4" height="9.4" transform="translate(25.16 -15.76) rotate(90)"/>
          <path class="cls-1" d="m15.77,12.28v9.59c-3.39,0-6.13,2.76-6.13,6.16H0c0-8.7,7.06-15.75,15.77-15.75Z"/>
          <path class="cls-1" d="m34.43,9.4v9.35c-5.11,0-9.26,4.15-9.26,9.27h-9.41c0-10.29,8.36-18.63,18.67-18.63Z"/>
        </g>
        <g>
          <path class="cls-1" d="m43.97,0v.19h-.84v2.22h-.22V.19h-.85V0h1.91Z"/>
          <path class="cls-1" d="m44.51,0l.94,2.23L46.39,0h.23v2.41h-.21V.51l-.8,1.91h-.31l-.82-1.94v1.94h-.2V0h.24Z"/>
        </g>
      </g>
      <g>
        <path class="cls-1" d="m4.18,37.53c1.28,0,2.21.24,2.79.73.58.49.87,1.19.87,2.12,0,.39-.07.74-.2,1.05-.14.31-.33.59-.57.83.47.31.83.72,1.07,1.21.24.49.36,1.02.36,1.59,0,.44-.06.87-.17,1.29-.12.42-.31.79-.57,1.12-.27.33-.62.58-1.05.78-.44.19-.98.29-1.63.29H0v-11.01h4.18Zm-2.55,1.49v2.69h2.94c.59,0,1.02-.11,1.29-.34.27-.23.41-.57.41-1.03s-.14-.8-.41-1.01c-.27-.21-.7-.31-1.29-.31H1.64Zm3.81,8.02c.26,0,.48-.06.67-.17.18-.12.33-.27.44-.46s.19-.4.24-.64c.05-.24.08-.47.08-.72s-.03-.47-.08-.7c-.05-.23-.14-.42-.26-.6-.12-.17-.28-.31-.47-.42-.19-.1-.43-.16-.72-.16H1.64v3.85h3.81Z"/>
        <path class="cls-1" d="m10.39,38.66c0-.25.06-.47.18-.65.12-.18.36-.28.73-.28s.61.09.74.28c.13.18.19.4.19.65s-.06.48-.19.66c-.13.18-.37.27-.74.27s-.61-.09-.73-.27c-.12-.18-.18-.4-.18-.66Zm.14,2.01h1.54v7.86h-1.54v-7.86Z"/>
        <path class="cls-1" d="m14.01,37.42h1.54v4.32c.27-.34.62-.63,1.03-.89.41-.26.94-.39,1.58-.39s1.22.1,1.71.31c.49.21.89.5,1.22.88.32.38.57.83.73,1.34.16.52.24,1.08.24,1.69s-.08,1.16-.24,1.67c-.16.5-.41.93-.73,1.28-.33.35-.73.62-1.22.82-.49.19-1.06.29-1.71.29s-1.15-.12-1.57-.36c-.42-.24-.77-.52-1.04-.83v.98h-1.54v-11.12Zm1.54,7.23c0,.39.05.75.14,1.08s.25.62.46.86c.21.24.48.43.81.57.33.14.73.2,1.2.2.38,0,.71-.07,1.01-.2.29-.14.54-.32.74-.57.2-.24.35-.53.45-.86.1-.33.15-.69.15-1.08s-.05-.75-.15-1.09c-.1-.34-.25-.64-.45-.89-.2-.25-.45-.45-.74-.6-.29-.15-.63-.22-1.01-.22-.47,0-.87.07-1.2.22-.33.15-.6.35-.81.6-.21.25-.36.55-.46.89-.09.34-.14.71-.14,1.09Z"/>
        <path class="cls-1" d="m23.29,46.37c0-.42.09-.79.28-1.1s.44-.59.75-.83c.31-.24.66-.45,1.06-.61.4-.17.81-.31,1.23-.43.42-.12.83-.22,1.23-.29.4-.07.77-.14,1.09-.19v-.17c0-.31-.07-.5-.22-.57-.15-.06-.33-.09-.55-.09h-4.51v-1.4h4.95c.46,0,.82.06,1.07.18.25.12.43.29.55.5.12.22.18.47.2.77.02.3.03.63.03.98v3.59c0,.17.02.28.07.35s.15.09.31.09h.61v1.4h-1.34c-.27,0-.49-.04-.64-.12s-.28-.18-.36-.3c-.08-.12-.14-.25-.16-.39-.02-.14-.03-.26-.03-.36v-.61c-.03.23-.12.46-.27.7-.15.24-.34.45-.59.64-.25.19-.53.34-.86.46-.33.12-.68.18-1.07.18-.36,0-.71-.05-1.05-.16-.34-.1-.64-.26-.91-.46s-.48-.45-.64-.75c-.16-.29-.24-.63-.24-1.01Zm1.64-.13c0,.16.04.29.13.41.09.12.2.21.33.28.13.07.28.13.44.17.16.04.32.05.46.05.31,0,.63-.07.94-.2.31-.13.59-.3.84-.5.25-.2.45-.43.61-.69.16-.26.24-.51.24-.75v-.83c-.17.03-.38.08-.64.13-.26.06-.54.13-.83.21-.29.08-.59.18-.89.29s-.57.24-.81.38c-.24.14-.44.3-.59.47-.15.17-.23.36-.23.57Z"/>
        <path class="cls-1" d="m32.44,46.37c0-.42.09-.79.28-1.1s.44-.59.75-.83c.31-.24.66-.45,1.06-.61.4-.17.81-.31,1.23-.43.42-.12.83-.22,1.23-.29.4-.07.77-.14,1.09-.19v-.17c0-.31-.07-.5-.22-.57-.15-.06-.33-.09-.55-.09h-4.51v-1.4h4.95c.46,0,.82.06,1.07.18.25.12.43.29.55.5.12.22.18.47.2.77.02.3.03.63.03.98v3.59c0,.17.02.28.07.35s.15.09.31.09h.61v1.4h-1.34c-.27,0-.49-.04-.64-.12s-.28-.18-.36-.3c-.08-.12-.14-.25-.16-.39-.02-.14-.03-.26-.03-.36v-.61c-.03.23-.12.46-.27.7-.15.24-.34.45-.59.64-.25.19-.53.34-.86.46-.33.12-.68.18-1.07.18-.36,0-.71-.05-1.05-.16-.34-.1-.64-.26-.91-.46s-.48-.45-.64-.75c-.16-.29-.24-.63-.24-1.01Zm1.64-.13c0,.16.04.29.13.41.09.12.2.21.33.28.13.07.28.13.44.17.16.04.32.05.46.05.31,0,.63-.07.94-.2.31-.13.59-.3.84-.5.25-.2.45-.43.61-.69.16-.26.24-.51.24-.75v-.83c-.17.03-.38.08-.64.13-.26.06-.54.13-.83.21-.29.08-.59.18-.89.29s-.57.24-.81.38c-.24.14-.44.3-.59.47-.15.17-.23.36-.23.57Z"/>
        <path class="cls-1" d="m41.67,37.42h1.54v4.32c.27-.34.62-.63,1.03-.89.41-.26.94-.39,1.58-.39s1.22.1,1.71.31c.49.21.89.5,1.22.88.32.38.57.83.73,1.34.16.52.24,1.08.24,1.69s-.08,1.16-.24,1.67c-.16.5-.41.93-.73,1.28-.33.35-.73.62-1.22.82-.49.19-1.06.29-1.71.29s-1.15-.12-1.57-.36c-.42-.24-.77-.52-1.04-.83v.98h-1.54v-11.12Zm1.54,7.23c0,.39.05.75.14,1.08s.25.62.46.86c.21.24.48.43.81.57.33.14.73.2,1.2.2.38,0,.71-.07,1.01-.2.29-.14.54-.32.74-.57.2-.24.35-.53.45-.86.1-.33.15-.69.15-1.08s-.05-.75-.15-1.09c-.1-.34-.25-.64-.45-.89-.2-.25-.45-.45-.74-.6-.29-.15-.63-.22-1.01-.22-.47,0-.87.07-1.2.22-.33.15-.6.35-.81.6-.21.25-.36.55-.46.89-.09.34-.14.71-.14,1.09Z"/>
        <path class="cls-1" d="m55.01,40.46c.75,0,1.4.11,1.93.32.53.22.96.51,1.28.89.32.38.56.82.71,1.34.15.51.22,1.07.22,1.68s-.07,1.16-.22,1.66c-.15.5-.38.93-.71,1.28-.33.36-.75.63-1.28.83-.53.19-1.17.29-1.93.29s-1.39-.1-1.92-.29c-.52-.19-.95-.47-1.28-.83-.33-.36-.57-.78-.72-1.28-.15-.5-.22-1.05-.22-1.66s.07-1.17.22-1.68c.15-.51.39-.96.72-1.34s.76-.67,1.28-.89c.52-.21,1.16-.32,1.92-.32Zm-2.61,4.21c0,.38.05.73.14,1.05.09.32.25.6.46.84.21.24.48.43.81.57.33.14.73.2,1.2.2s.87-.07,1.2-.2c.33-.14.6-.32.8-.57.2-.24.35-.52.45-.84.09-.32.14-.67.14-1.05s-.05-.75-.14-1.09c-.09-.34-.24-.64-.45-.9-.2-.26-.47-.46-.8-.61-.33-.15-.73-.22-1.2-.22s-.87.07-1.2.22c-.33.15-.6.35-.81.61-.21.26-.36.56-.46.9-.09.34-.14.71-.14,1.09Z"/>
      </g>
    </g>
  </g>
</svg>