<?xml version="1.0" encoding="UTF-8"?>
<svg id="Layer_2" data-name="Layer 2" xmlns="http://www.w3.org/2000/svg" viewBox="0 0 134.02 28.03">
  <defs>
    <style>
      .cls-1 {
        fill: #fff;
      }

      .cls-2 {
        fill: #01ad8a;
      }
    </style>
  </defs>
  <g id="Layer_1-2" data-name="Layer 1">
    <g>
      <g>
        <g>
          <path class="cls-2" d="m65.48,0c-.38,3.83-1.45,7.46-3.1,10.76-5.1,10.24-15.7,17.27-27.94,17.27v-9.35c10.99,0,20.09-8.12,21.58-18.67h9.46Z"/>
          <rect class="cls-2" x="15.77" y="0" width="9.4" height="9.4" transform="translate(25.16 -15.76) rotate(90)"/>
          <path class="cls-2" d="m15.77,12.28v9.59c-3.39,0-6.13,2.76-6.13,6.16H0c0-8.7,7.06-15.75,15.77-15.75Z"/>
          <path class="cls-2" d="m34.43,9.4v9.35c-5.11,0-9.26,4.15-9.26,9.27h-9.41c0-10.29,8.36-18.63,18.67-18.63Z"/>
        </g>
        <g>
          <path class="cls-2" d="m43.97,0v.19h-.84v2.22h-.22V.19h-.85V0h1.91Z"/>
          <path class="cls-2" d="m44.51,0l.94,2.23L46.39,0h.23v2.41h-.21V.51l-.8,1.91h-.31l-.82-1.94v1.94h-.2V0h.24Z"/>
        </g>
      </g>
      <g>
        <g>
          <path class="cls-1" d="m75.36,19.65l1.05,2.49,1.05-2.49h.43v3.05h-.44v-1.88l-.79,1.88h-.5l-.81-1.92v1.92h-.42v-3.05h.44Z"/>
          <path class="cls-1" d="m79.36,19.65h.5l1.17,3.05h-.48l-.31-.82h-1.26l-.31.82h-.48l1.17-3.05Zm.72,1.82l-.47-1.24-.47,1.24h.94Z"/>
          <path class="cls-1" d="m81.3,22.7v-3.05h.45v1.25l1.11-1.25h.57l-1.3,1.45,1.4,1.6h-.58l-1.11-1.27-.08.09v1.18h-.45Z"/>
          <path class="cls-1" d="m83.85,19.65h1.95v.43h-1.5v.78h1.35v.41h-1.35v1h1.5v.43h-1.95v-3.05Z"/>
          <path class="cls-1" d="m87.15,19.65h.52l.87,1.45.87-1.45h.52l-1.17,1.92v1.13h-.44v-1.13l-1.17-1.92Z"/>
          <path class="cls-1" d="m91.59,19.56c.27,0,.5.04.7.13.2.08.36.2.48.35s.22.32.28.53c.06.2.09.42.09.66s-.03.45-.09.65c-.06.19-.15.36-.28.5s-.29.24-.48.32c-.2.08-.43.11-.7.11s-.5-.04-.7-.11-.36-.18-.48-.32c-.13-.14-.22-.3-.28-.5s-.09-.41-.09-.65.03-.45.09-.66.16-.38.28-.53c.13-.15.29-.26.48-.35.19-.08.43-.13.7-.13Zm-1.11,1.65c0,.16.02.31.06.46.04.14.11.27.2.38.09.11.2.2.34.26.14.06.31.1.51.1s.37-.03.51-.1c.14-.06.25-.15.34-.26.09-.11.15-.24.19-.38.04-.15.06-.3.06-.46s-.02-.32-.06-.47c-.04-.15-.11-.28-.19-.4-.09-.12-.2-.21-.34-.28s-.31-.1-.51-.1-.37.03-.51.1-.25.16-.34.28c-.09.12-.16.25-.2.4-.04.15-.06.31-.06.47Z"/>
          <path class="cls-1" d="m93.53,19.65h.45v2.03c0,.1.01.19.04.27.03.08.07.14.13.2.06.05.14.09.24.12.1.03.22.04.36.04s.27-.01.36-.04.17-.07.23-.12c.06-.05.1-.12.13-.2.03-.08.04-.17.04-.27v-2.03h.45v1.91c0,.14-.01.28-.04.43-.03.14-.08.27-.17.38-.09.11-.21.21-.37.28-.16.07-.37.11-.63.11s-.49-.04-.65-.11c-.16-.07-.28-.16-.37-.28-.08-.11-.14-.24-.16-.38-.02-.14-.04-.28-.04-.43v-1.91Z"/>
          <path class="cls-1" d="m97.78,19.65c.18,0,.33.03.45.09.12.06.22.13.29.23.07.1.13.2.16.32s.05.24.05.37c0,.09,0,.18-.03.28s-.05.18-.09.26c-.04.08-.1.16-.16.23-.07.07-.15.12-.24.17l.63,1.11h-.52l-.57-1.03h-.92v1.03h-.45v-3.05h1.4Zm-.94,1.6h1.04c.08,0,.14-.02.19-.05.05-.04.09-.08.12-.14.03-.06.05-.12.07-.19.01-.07.02-.14.02-.21s0-.14-.02-.2c-.01-.07-.04-.13-.07-.19-.03-.06-.08-.1-.13-.14s-.12-.05-.2-.05h-1.02v1.17Z"/>
          <path class="cls-1" d="m102.2,19.65v.43h-1.48v.99h1.32v.41h-1.32v1.22h-.45v-3.05h1.93Z"/>
          <path class="cls-1" d="m102.56,19.65h.45v3.05h-.45v-3.05Z"/>
          <path class="cls-1" d="m103.48,22.7v-3.05h.48l1.59,2.31v-2.31h.44v3.05h-.48l-1.61-2.33v2.33h-.43Z"/>
          <path class="cls-1" d="m107.46,19.65h.5l1.17,3.05h-.48l-.31-.82h-1.26l-.31.82h-.48l1.17-3.05Zm.72,1.82l-.47-1.24-.47,1.24h.94Z"/>
          <path class="cls-1" d="m109.44,22.7v-3.05h.48l1.59,2.31v-2.31h.44v3.05h-.48l-1.61-2.33v2.33h-.43Z"/>
          <path class="cls-1" d="m113.82,19.6c.18,0,.33.03.47.08.13.05.25.12.36.2.1.09.19.18.27.3.08.11.14.23.2.35h-.5c-.04-.08-.09-.15-.13-.21-.05-.06-.1-.12-.16-.16-.06-.04-.13-.08-.21-.1-.08-.02-.18-.04-.29-.04-.19,0-.35.03-.47.1-.12.07-.22.15-.3.26-.07.11-.13.24-.16.38-.03.15-.05.3-.05.45s.02.3.05.44.08.26.16.36c.07.1.17.18.3.24.12.06.28.09.47.09.12,0,.23-.01.32-.04.09-.03.17-.06.24-.11.07-.05.13-.11.18-.18.05-.07.09-.15.13-.23h.49c-.05.13-.11.25-.18.37-.08.12-.17.22-.28.32-.11.09-.24.16-.39.22s-.32.08-.51.08c-.26,0-.49-.04-.67-.11-.18-.07-.33-.18-.45-.31s-.2-.3-.25-.49-.08-.4-.08-.63.03-.44.08-.64c.05-.2.13-.37.25-.51s.26-.26.45-.34c.18-.08.41-.12.67-.12Z"/>
          <path class="cls-1" d="m115.64,19.65h.45v3.05h-.45v-3.05Z"/>
          <path class="cls-1" d="m117.58,19.65h.5l1.17,3.05h-.48l-.31-.82h-1.26l-.31.82h-.48l1.17-3.05Zm.72,1.82l-.47-1.24-.47,1.24h.94Z"/>
          <path class="cls-1" d="m119.99,19.65v2.62h1.16v.43h-1.61v-3.05h.45Z"/>
          <path class="cls-1" d="m75.32,24.88v2.62h1.16v.43h-1.61v-3.05h.45Z"/>
          <path class="cls-1" d="m76.92,24.88h.45v3.05h-.45v-3.05Z"/>
          <path class="cls-1" d="m79.73,24.88v.43h-1.48v.99h1.32v.41h-1.32v1.22h-.45v-3.05h1.93Z"/>
          <path class="cls-1" d="m80.04,24.88h1.95v.43h-1.5v.78h1.35v.41h-1.35v1h1.5v.43h-1.95v-3.05Z"/>
          <path class="cls-1" d="m83.5,24.88h1.95v.43h-1.5v.78h1.35v.41h-1.35v1h1.5v.43h-1.95v-3.05Z"/>
          <path class="cls-1" d="m86.89,24.88h.5l1.17,3.05h-.48l-.31-.82h-1.26l-.31.82h-.48l1.17-3.05Zm.72,1.82l-.47-1.24-.47,1.24h.94Z"/>
          <path class="cls-1" d="m89.28,26.85c.02.17.06.3.11.41.05.1.12.18.21.24.09.06.19.09.31.11.12.02.26.03.41.03.12,0,.23,0,.32-.02s.18-.04.25-.07c.07-.03.13-.08.17-.14.04-.06.06-.14.07-.24,0-.09-.01-.16-.05-.22-.04-.06-.09-.11-.17-.15-.08-.04-.17-.07-.29-.1-.12-.03-.25-.05-.41-.08-.16-.03-.31-.06-.46-.09-.15-.03-.29-.08-.4-.15-.12-.07-.21-.16-.27-.28-.07-.12-.09-.27-.08-.47.01-.19.06-.33.13-.44.08-.11.17-.2.29-.25.12-.06.25-.1.4-.12s.3-.03.45-.03c.21,0,.39.02.53.07.15.04.27.11.36.21.1.09.17.22.22.37.05.15.08.33.1.55h-.44c-.01-.17-.04-.31-.08-.42-.04-.11-.1-.19-.17-.24-.07-.06-.16-.09-.28-.11s-.25-.03-.4-.03c-.22,0-.39.03-.51.1s-.19.2-.2.39c0,.1.02.17.05.23.04.06.1.1.17.13.08.04.17.06.29.09s.25.05.4.07c.22.03.4.08.56.13.16.05.29.12.39.19s.17.17.22.27c.05.11.07.23.07.37,0,.16-.03.3-.09.41-.06.11-.14.2-.25.27-.11.07-.24.12-.4.15-.16.03-.33.05-.53.05-.23,0-.43-.02-.6-.05-.17-.03-.31-.09-.43-.18-.12-.09-.21-.21-.28-.36s-.12-.35-.15-.6h.44Z"/>
          <path class="cls-1" d="m92.07,24.88h.45v3.05h-.45v-3.05Z"/>
          <path class="cls-1" d="m92.98,24.88h1.95v.43h-1.5v.78h1.35v.41h-1.35v1h1.5v.43h-1.95v-3.05Z"/>
          <path class="cls-1" d="m96.97,24.88c.18,0,.33.03.45.09.12.06.22.13.29.23.07.1.13.2.16.32s.05.24.05.37c0,.09,0,.18-.03.28s-.05.18-.09.26c-.04.08-.1.16-.16.23-.07.07-.15.12-.24.17l.63,1.11h-.52l-.57-1.03h-.92v1.03h-.45v-3.05h1.4Zm-.94,1.6h1.04c.08,0,.14-.02.19-.05.05-.04.09-.08.12-.14.03-.06.05-.12.07-.19.01-.07.02-.14.02-.21s0-.14-.02-.2c-.01-.07-.04-.13-.07-.19-.03-.06-.08-.1-.13-.14s-.12-.05-.2-.05h-1.02v1.17Z"/>
        </g>
        <g>
          <path class="cls-1" d="m79.06.11c1.28,0,2.21.24,2.79.73.58.49.87,1.19.87,2.12,0,.39-.07.74-.2,1.05-.14.31-.33.59-.57.83.47.31.83.72,1.07,1.21.24.49.36,1.02.36,1.59,0,.44-.06.87-.17,1.29-.12.42-.31.79-.57,1.12-.27.33-.62.58-1.05.78-.44.19-.98.29-1.63.29h-5.08V.11h4.18Zm-2.55,1.49v2.69h2.94c.59,0,1.02-.11,1.29-.34.27-.23.41-.57.41-1.03s-.14-.8-.41-1.01c-.27-.21-.7-.31-1.29-.31h-2.94Zm3.81,8.02c.26,0,.48-.06.67-.17.18-.12.33-.27.44-.46s.19-.4.24-.64c.05-.24.08-.47.08-.72s-.03-.47-.08-.7c-.05-.23-.14-.42-.26-.6-.12-.17-.28-.31-.47-.42-.19-.1-.43-.16-.72-.16h-3.71v3.85h3.81Z"/>
          <path class="cls-1" d="m85.27,1.24c0-.25.06-.47.18-.65.12-.18.36-.28.73-.28s.61.09.74.28c.13.18.19.4.19.65s-.06.48-.19.66c-.13.18-.37.27-.74.27s-.61-.09-.73-.27c-.12-.18-.18-.4-.18-.66Zm.14,2.01h1.54v7.86h-1.54V3.26Z"/>
          <path class="cls-1" d="m88.88,0h1.54v4.32c.27-.34.62-.63,1.03-.89.41-.26.94-.39,1.58-.39s1.22.1,1.71.31c.49.21.89.5,1.22.88.32.38.57.83.73,1.34.16.52.24,1.08.24,1.69s-.08,1.16-.24,1.67c-.16.5-.41.93-.73,1.28-.33.35-.73.62-1.22.82-.49.19-1.06.29-1.71.29s-1.15-.12-1.57-.36c-.42-.24-.77-.52-1.04-.83v.98h-1.54V0Zm1.54,7.23c0,.39.05.75.14,1.08s.25.62.46.86c.21.24.48.43.81.57.33.14.73.2,1.2.2.38,0,.71-.07,1.01-.2.29-.14.54-.32.74-.57.2-.24.35-.53.45-.86.1-.33.15-.69.15-1.08s-.05-.75-.15-1.09c-.1-.34-.25-.64-.45-.89-.2-.25-.45-.45-.74-.6-.29-.15-.63-.22-1.01-.22-.47,0-.87.07-1.2.22-.33.15-.6.35-.81.6-.21.25-.36.55-.46.89-.09.34-.14.71-.14,1.09Z"/>
          <path class="cls-1" d="m98.16,8.95c0-.42.09-.79.28-1.1s.44-.59.75-.83c.31-.24.66-.45,1.06-.61.4-.17.81-.31,1.23-.43.42-.12.83-.22,1.23-.29.4-.07.77-.14,1.09-.19v-.17c0-.31-.07-.5-.22-.57-.15-.06-.33-.09-.55-.09h-4.51v-1.4h4.95c.46,0,.82.06,1.07.18.25.12.43.29.55.5.12.22.18.47.2.77.02.3.03.63.03.98v3.59c0,.17.02.28.07.35s.15.09.31.09h.61v1.4h-1.34c-.27,0-.49-.04-.64-.12s-.28-.18-.36-.3c-.08-.12-.14-.25-.16-.39-.02-.14-.03-.26-.03-.36v-.61c-.03.23-.12.46-.27.7-.15.24-.34.45-.59.64-.25.19-.53.34-.86.46-.33.12-.68.18-1.07.18-.36,0-.71-.05-1.05-.16-.34-.1-.64-.26-.91-.46s-.48-.45-.64-.75c-.16-.29-.24-.63-.24-1.01Zm1.64-.13c0,.16.04.29.13.41.09.12.2.21.33.28.13.07.28.13.44.17.16.04.32.05.46.05.31,0,.63-.07.94-.2.31-.13.59-.3.84-.5.25-.2.45-.43.61-.69.16-.26.24-.51.24-.75v-.83c-.17.03-.38.08-.64.13-.26.06-.54.13-.83.21-.29.08-.59.18-.89.29s-.57.24-.81.38c-.24.14-.44.3-.59.47-.15.17-.23.36-.23.57Z"/>
          <path class="cls-1" d="m107.31,8.95c0-.42.09-.79.28-1.1s.44-.59.75-.83c.31-.24.66-.45,1.06-.61.4-.17.81-.31,1.23-.43.42-.12.83-.22,1.23-.29.4-.07.77-.14,1.09-.19v-.17c0-.31-.07-.5-.22-.57-.15-.06-.33-.09-.55-.09h-4.51v-1.4h4.95c.46,0,.82.06,1.07.18.25.12.43.29.55.5.12.22.18.47.2.77.02.3.03.63.03.98v3.59c0,.17.02.28.07.35s.15.09.31.09h.61v1.4h-1.34c-.27,0-.49-.04-.64-.12s-.28-.18-.36-.3c-.08-.12-.14-.25-.16-.39-.02-.14-.03-.26-.03-.36v-.61c-.03.23-.12.46-.27.7-.15.24-.34.45-.59.64-.25.19-.53.34-.86.46-.33.12-.68.18-1.07.18-.36,0-.71-.05-1.05-.16-.34-.1-.64-.26-.91-.46s-.48-.45-.64-.75c-.16-.29-.24-.63-.24-1.01Zm1.64-.13c0,.16.04.29.13.41.09.12.2.21.33.28.13.07.28.13.44.17.16.04.32.05.46.05.31,0,.63-.07.94-.2.31-.13.59-.3.84-.5.25-.2.45-.43.61-.69.16-.26.24-.51.24-.75v-.83c-.17.03-.38.08-.64.13-.26.06-.54.13-.83.21-.29.08-.59.18-.89.29s-.57.24-.81.38c-.24.14-.44.3-.59.47-.15.17-.23.36-.23.57Z"/>
          <path class="cls-1" d="m116.55,0h1.54v4.32c.27-.34.62-.63,1.03-.89.41-.26.94-.39,1.58-.39s1.22.1,1.71.31c.49.21.89.5,1.22.88.32.38.57.83.73,1.34.16.52.24,1.08.24,1.69s-.08,1.16-.24,1.67c-.16.5-.41.93-.73,1.28-.33.35-.73.62-1.22.82-.49.19-1.06.29-1.71.29s-1.15-.12-1.57-.36c-.42-.24-.77-.52-1.04-.83v.98h-1.54V0Zm1.54,7.23c0,.39.05.75.14,1.08s.25.62.46.86c.21.24.48.43.81.57.33.14.73.2,1.2.2.38,0,.71-.07,1.01-.2.29-.14.54-.32.74-.57.2-.24.35-.53.45-.86.1-.33.15-.69.15-1.08s-.05-.75-.15-1.09c-.1-.34-.25-.64-.45-.89-.2-.25-.45-.45-.74-.6-.29-.15-.63-.22-1.01-.22-.47,0-.87.07-1.2.22-.33.15-.6.35-.81.6-.21.25-.36.55-.46.89-.09.34-.14.71-.14,1.09Z"/>
          <path class="cls-1" d="m129.88,3.04c.75,0,1.4.11,1.93.32.53.22.96.51,1.28.89.32.38.56.82.71,1.34.15.51.22,1.07.22,1.68s-.07,1.16-.22,1.66c-.15.5-.38.93-.71,1.28-.33.36-.75.63-1.28.83-.53.19-1.17.29-1.93.29s-1.39-.1-1.92-.29c-.52-.19-.95-.47-1.28-.83-.33-.36-.57-.78-.72-1.28-.15-.5-.22-1.05-.22-1.66s.07-1.17.22-1.68c.15-.51.39-.96.72-1.34s.76-.67,1.28-.89c.52-.21,1.16-.32,1.92-.32Zm-2.61,4.21c0,.38.05.73.14,1.05.09.32.25.6.46.84.21.24.48.43.81.57.33.14.73.2,1.2.2s.87-.07,1.2-.2c.33-.14.6-.32.8-.57.2-.24.35-.52.45-.84.09-.32.14-.67.14-1.05s-.05-.75-.14-1.09c-.09-.34-.24-.64-.45-.9-.2-.26-.47-.46-.8-.61-.33-.15-.73-.22-1.2-.22s-.87.07-1.2.22c-.33.15-.6.35-.81.61-.21.26-.36.56-.46.9-.09.34-.14.71-.14,1.09Z"/>
        </g>
      </g>
    </g>
  </g>
</svg>