<?xml version="1.0" encoding="UTF-8"?>
<svg id="Layer_2" data-name="Layer 2" xmlns="http://www.w3.org/2000/svg" viewBox="0 0 146.93 18.63">
  <defs>
    <style>
      .cls-1 {
        fill: #042739;
      }

      .cls-2 {
        fill: #01ad8a;
      }
    </style>
  </defs>
  <g id="Layer_1-2" data-name="Layer 1">
    <g>
      <g>
        <g>
          <path class="cls-2" d="m43.52,0c-.25,2.55-.97,4.96-2.06,7.15-3.39,6.8-10.44,11.48-18.57,11.48v-6.22c7.3,0,13.35-5.4,14.34-12.41h6.29Z"/>
          <rect class="cls-2" x="10.48" y="0" width="6.25" height="6.25" transform="translate(16.73 -10.48) rotate(90)"/>
          <path class="cls-2" d="m10.48,8.16v6.37c-2.25,0-4.08,1.83-4.08,4.09H0c0-5.78,4.69-10.47,10.48-10.47Z"/>
          <path class="cls-2" d="m22.89,6.25v6.22c-3.4,0-6.15,2.76-6.15,6.16h-6.26c0-6.84,5.56-12.38,12.41-12.38Z"/>
        </g>
        <g>
          <path class="cls-2" d="m29.23,0v.13h-.56v1.48h-.15V.13h-.56V0h1.27Z"/>
          <path class="cls-2" d="m29.59,0l.63,1.48L30.84,0h.15v1.6h-.14V.34l-.53,1.27h-.21l-.54-1.29v1.29h-.13V0h.16Z"/>
        </g>
      </g>
      <g>
        <path class="cls-1" d="m56.64.18c2.1,0,3.63.4,4.59,1.2.96.8,1.43,1.96,1.43,3.48,0,.64-.11,1.21-.34,1.73-.22.52-.53.97-.93,1.37.78.52,1.36,1.18,1.76,1.99.4.81.59,1.68.59,2.61,0,.72-.09,1.43-.28,2.12-.19.69-.5,1.3-.94,1.83-.44.53-1.02.96-1.73,1.28-.71.32-1.61.48-2.67.48h-8.34V.18h6.87Zm-4.19,2.45v4.42h4.83c.96,0,1.67-.19,2.12-.56.45-.37.67-.93.67-1.69s-.22-1.31-.67-1.65c-.45-.34-1.15-.52-2.12-.52h-4.83Zm6.25,13.18c.43,0,.8-.09,1.1-.28.3-.19.54-.44.72-.75s.31-.66.4-1.05c.09-.39.13-.78.13-1.18s-.04-.78-.13-1.15c-.09-.37-.23-.7-.43-.98-.2-.28-.46-.51-.78-.68-.32-.17-.71-.26-1.18-.26h-6.1v6.33h6.25Z"/>
        <path class="cls-1" d="m66.84,2.04c0-.41.1-.77.3-1.07.2-.3.6-.45,1.2-.45s1.01.15,1.21.45c.21.3.31.66.31,1.07s-.1.79-.31,1.09c-.21.29-.61.44-1.21.44s-1-.15-1.2-.44c-.2-.29-.3-.65-.3-1.09Zm.23,3.31h2.53v12.92h-2.53V5.35Z"/>
        <path class="cls-1" d="m72.79,0h2.53v7.1c.45-.55,1.01-1.04,1.69-1.46.68-.42,1.55-.63,2.6-.63s2,.17,2.8.52c.8.34,1.47.83,2,1.45.53.62.93,1.36,1.2,2.21.27.85.4,1.78.4,2.78s-.13,1.91-.4,2.74c-.27.83-.67,1.53-1.2,2.11-.53.58-1.2,1.02-2,1.34-.8.32-1.74.48-2.8.48s-1.89-.2-2.58-.59c-.69-.4-1.26-.85-1.71-1.37v1.6h-2.53V0Zm2.53,11.88c0,.64.08,1.23.23,1.77s.4,1.01.75,1.41c.34.4.79.71,1.33.93.54.22,1.2.34,1.98.34.62,0,1.17-.11,1.65-.34.48-.22.89-.53,1.21-.93.33-.4.57-.87.74-1.41.16-.54.25-1.13.25-1.77s-.08-1.24-.25-1.8c-.16-.56-.41-1.05-.74-1.46-.33-.41-.73-.74-1.21-.98-.48-.24-1.03-.36-1.65-.36-.78,0-1.43.12-1.98.36-.54.24-.99.57-1.33.98-.34.41-.59.9-.75,1.46-.16.56-.23,1.16-.23,1.8Z"/>
        <path class="cls-1" d="m88.03,14.7c0-.69.16-1.29.47-1.81s.72-.97,1.23-1.37c.51-.4,1.09-.73,1.74-1.01.65-.28,1.33-.51,2.02-.71.69-.2,1.36-.36,2.03-.48.66-.12,1.26-.22,1.8-.31v-.28c0-.52-.12-.83-.36-.93-.24-.1-.54-.16-.9-.16h-7.41v-2.3h8.14c.76,0,1.34.1,1.76.3.41.2.71.47.9.83.19.35.3.78.34,1.27.03.49.05,1.03.05,1.61v5.89c0,.28.04.47.12.57s.25.16.5.16h1.01v2.3h-2.2c-.45,0-.8-.06-1.06-.19s-.46-.29-.59-.49c-.14-.2-.22-.41-.26-.63-.03-.22-.05-.42-.05-.59v-1.01c-.05.38-.2.76-.44,1.15-.24.39-.56.74-.97,1.05-.4.31-.87.56-1.41.76-.53.2-1.12.3-1.76.3-.59,0-1.16-.09-1.72-.26-.56-.17-1.06-.43-1.5-.76s-.79-.74-1.06-1.23c-.27-.48-.4-1.03-.4-1.65Zm2.69-.21c0,.26.07.48.22.67.15.19.33.34.54.47.22.12.46.21.72.27.27.06.52.09.76.09.52,0,1.03-.11,1.55-.32.52-.22.98-.49,1.38-.83.4-.34.74-.71.99-1.14.26-.42.39-.83.39-1.23v-1.37c-.28.05-.63.13-1.06.22-.43.09-.89.21-1.37.35-.48.14-.97.3-1.46.48s-.93.39-1.33.62c-.4.23-.72.49-.97.78-.25.28-.37.6-.37.94Z"/>
        <path class="cls-1" d="m103.06,14.7c0-.69.16-1.29.47-1.81s.72-.97,1.23-1.37c.51-.4,1.09-.73,1.74-1.01.65-.28,1.33-.51,2.02-.71.69-.2,1.36-.36,2.03-.48.66-.12,1.26-.22,1.8-.31v-.28c0-.52-.12-.83-.36-.93-.24-.1-.54-.16-.9-.16h-7.41v-2.3h8.14c.76,0,1.34.1,1.76.3.41.2.71.47.9.83.19.35.3.78.34,1.27.03.49.05,1.03.05,1.61v5.89c0,.28.04.47.12.57s.25.16.5.16h1.01v2.3h-2.2c-.45,0-.8-.06-1.06-.19s-.46-.29-.59-.49c-.14-.2-.22-.41-.26-.63-.03-.22-.05-.42-.05-.59v-1.01c-.05.38-.2.76-.44,1.15-.24.39-.56.74-.97,1.05-.4.31-.87.56-1.41.76-.53.2-1.12.3-1.76.3-.59,0-1.16-.09-1.72-.26-.56-.17-1.06-.43-1.5-.76s-.79-.74-1.06-1.23c-.27-.48-.4-1.03-.4-1.65Zm2.69-.21c0,.26.07.48.22.67.15.19.33.34.54.47.22.12.46.21.72.27.27.06.52.09.76.09.52,0,1.03-.11,1.55-.32.52-.22.98-.49,1.38-.83.4-.34.74-.71.99-1.14.26-.42.39-.83.39-1.23v-1.37c-.28.05-.63.13-1.06.22-.43.09-.89.21-1.37.35-.48.14-.97.3-1.46.48s-.93.39-1.33.62c-.4.23-.72.49-.97.78-.25.28-.37.6-.37.94Z"/>
        <path class="cls-1" d="m118.23,0h2.53v7.1c.45-.55,1.01-1.04,1.69-1.46.68-.42,1.55-.63,2.6-.63s2,.17,2.8.52c.8.34,1.47.83,2,1.45.53.62.93,1.36,1.2,2.21.27.85.4,1.78.4,2.78s-.13,1.91-.4,2.74c-.27.83-.67,1.53-1.2,2.11-.53.58-1.2,1.02-2,1.34-.8.32-1.74.48-2.8.48s-1.89-.2-2.58-.59c-.69-.4-1.26-.85-1.71-1.37v1.6h-2.53V0Zm2.53,11.88c0,.64.08,1.23.23,1.77s.4,1.01.75,1.41c.34.4.79.71,1.33.93.54.22,1.2.34,1.98.34.62,0,1.17-.11,1.65-.34.48-.22.89-.53,1.21-.93.33-.4.57-.87.74-1.41.16-.54.25-1.13.25-1.77s-.08-1.24-.25-1.8c-.16-.56-.41-1.05-.74-1.46-.33-.41-.73-.74-1.21-.98-.48-.24-1.03-.36-1.65-.36-.78,0-1.43.12-1.98.36-.54.24-.99.57-1.33.98-.34.41-.59.9-.75,1.46-.16.56-.23,1.16-.23,1.8Z"/>
        <path class="cls-1" d="m140.14,4.99c1.24,0,2.29.18,3.16.53.87.35,1.57.84,2.11,1.46.53.62.92,1.35,1.16,2.2.24.84.36,1.77.36,2.76s-.12,1.91-.36,2.73c-.24.82-.63,1.52-1.16,2.11-.53.59-1.24,1.04-2.11,1.36-.87.32-1.92.48-3.16.48s-2.29-.16-3.15-.48c-.86-.32-1.56-.77-2.11-1.36-.54-.59-.93-1.29-1.18-2.11-.24-.82-.36-1.73-.36-2.73s.12-1.92.36-2.76c.24-.84.63-1.58,1.18-2.2.54-.62,1.24-1.11,2.11-1.46.86-.35,1.91-.53,3.15-.53Zm-4.29,6.92c0,.62.08,1.19.23,1.72.16.53.4.99.75,1.38.34.4.79.71,1.33.93.54.22,1.2.34,1.98.34s1.43-.11,1.98-.34c.54-.22.98-.53,1.32-.93.34-.4.58-.86.74-1.38.16-.53.23-1.1.23-1.72s-.08-1.24-.23-1.8c-.16-.56-.4-1.05-.74-1.47-.34-.42-.78-.75-1.32-.99-.54-.24-1.2-.36-1.98-.36s-1.43.12-1.98.36c-.54.24-.99.57-1.33.99-.34.42-.59.91-.75,1.47-.16.56-.23,1.16-.23,1.8Z"/>
      </g>
    </g>
  </g>
</svg>